Coordinates
version=1
nRows=10
nColumns=63
inDegrees=yes

Units are S.I. units (second, meters, Newtons, ...)
If the header above contains a line with 'inDegrees', this indicates whether rotational values are in degrees (yes) or radians (no).

endheader
time	pelvis_tilt	pelvis_list	pelvis_rotation	pelvis_tx	pelvis_ty	pelvis_tz	hip_flexion_r	hip_adduction_r	hip_rotation_r	knee_angle_r	knee_angle_r_beta	ankle_angle_r	subtalar_angle_r	mtp_angle_r	hip_flexion_l	hip_adduction_l	hip_rotation_l	knee_angle_l	knee_angle_l_beta	ankle_angle_l	subtalar_angle_l	mtp_angle_l	L5_S1_Flex_Ext	L5_S1_Lat_Bending	L5_S1_axial_rotation	L4_L5_Flex_Ext	L4_L5_Lat_Bending	L4_L5_axial_rotation	L3_L4_Flex_Ext	L3_L4_Lat_Bending	L3_L4_axial_rotation	L2_L3_Flex_Ext	L2_L3_Lat_Bending	L2_L3_axial_rotation	L1_L2_Flex_Ext	L1_L2_Lat_Bending	L1_L2_axial_rotation	L1_T12_Flex_Ext	L1_T12_Lat_Bending	L1_T12_axial_rotation	Abs_r3	Abs_r2	Abs_r1	Abs_t1	Abs_t2	neck_flexion	neck_bending	neck_rotation	arm_flex_r	arm_add_r	arm_rot_r	elbow_flex_r	pro_sup_r	wrist_flex_r	wrist_dev_r	arm_flex_l	arm_add_l	arm_rot_l	elbow_flex_l	pro_sup_l	wrist_flex_l	wrist_dev_l
      0.00000000	     -0.72776371	     -2.97871790	     99.05720379	      0.05913158	      0.91263930	      0.61717087	      9.50408905	      1.09343029	    -10.90338674	     13.78028499	      0.24051134	     28.56924238	     -1.38804143	      0.00000000	      6.47999689	     -0.16461312	    -10.11580453	      7.02404367	      0.12259269	     34.45458000	     12.47162462	      0.00000000	      0.44867262	      0.08907626	     -0.72568083	      0.83322992	      0.11847142	     -0.77103588	      0.73712424	      0.21658001	     -0.77103588	      0.51278793	      0.21658001	     -0.63497073	      0.41663739	      0.18164430	     -0.58961567	      0.25637153	      0.13797912	     -0.54426062	      3.20482364	      1.00764843	     -4.03601908	      0.00000000	      0.00000000	     27.97171678	      9.32095739	     10.12775557	     24.93073727	    -12.27084640	     83.38162472	     56.85737081	     31.93858956	     -4.53303604	      1.23701922	      9.15805809	    -16.79708797	     43.87256685	     59.27480316	     86.71805261	      1.66586817	      5.02701288
      0.01851852	     -0.53288635	     -2.62843038	    100.30302017	      0.05785472	      0.91321588	      0.61573521	      8.95110519	      1.25982384	    -11.39865466	     13.75205224	      0.24001859	     28.95753299	     -1.84724920	      0.00000000	      6.19266402	     -0.32766778	     -8.49814489	      6.91897358	      0.12075887	     34.74441667	     12.29537497	      0.00000000	      0.43475707	      0.12435259	     -0.90947716	      0.80738735	      0.16538894	     -0.96631948	      0.71426238	      0.30235088	     -0.96631948	      0.49688385	      0.30235088	     -0.79579251	      0.40371541	      0.25357980	     -0.73895019	      0.24842019	      0.19262216	     -0.68210787	      3.10542624	      1.40670135	     -5.05823910	      0.00000000	      0.00000000	     27.86721229	      8.00235400	     10.43840818	     23.62198411	    -12.13459648	     81.02718836	     56.09303831	     37.09416496	     -5.01588501	      1.82685791	      9.41824176	    -16.78382700	     45.03435995	     59.05510689	     87.96522174	      1.31179427	      5.07649373
      0.03703704	     -0.42215955	     -2.18670875	    101.01921164	      0.05711753	      0.91390700	      0.61437757	      8.35112742	      1.40850776	    -11.71647424	     13.76203870	      0.24019289	     29.29250902	     -1.85212386	      0.00000000	      5.61069375	     -0.45390866	     -7.49901618	      6.51057386	      0.11363095	     34.80541304	     12.07771940	      0.00000000	      0.39668592	      0.14914866	     -1.02977991	      0.73668542	      0.19836771	     -1.09414116	      0.65171530	      0.36264004	     -1.09414116	      0.45337234	      0.36264004	     -0.90105743	      0.36836255	      0.30414394	     -0.83669618	      0.22666634	      0.23103127	     -0.77233494	      2.83348787	      1.68719944	     -5.72732695	      0.00000000	      0.00000000	     27.75590966	      7.34410795	     10.90428521	     23.03831489	    -12.03935699	     80.29970354	     55.63267941	     38.13101893	     -5.09960516	      1.86147954	      9.51938042	    -16.78674471	     45.71169731	     58.93079777	     88.23235598	      1.10340852	      5.16504758
      0.05555556	     -0.28838340	     -2.02881767	    101.89909981	      0.05604879	      0.91417647	      0.61314859	      8.10871549	      1.50225061	    -12.15141333	     13.90502239	      0.24268842	     29.55099126	     -2.07483339	      0.00000000	      5.42581876	     -0.53360245	     -5.95674917	      6.27398484	      0.10950169	     34.84024056	     11.35039734	      0.00000000	      0.40363617	      0.15906952	     -1.12810340	      0.74959273	      0.21156246	     -1.19860986	      0.66313386	      0.38676164	     -1.19860986	      0.46131578	      0.38676164	     -0.98709047	      0.37481655	      0.32437457	     -0.91658401	      0.23063771	      0.24639869	     -0.84607755	      2.88313278	      1.79942625	     -6.27417268	      0.00000000	      0.00000000	     27.68860650	      6.72452188	     10.52431987	     21.55919044	    -12.05504099	     77.15984171	     55.36369475	     43.57075390	     -4.58402878	      3.51727537	      9.72155522	    -16.78018008	     46.64943953	     58.69256666	     88.44452181	      0.85980852	      4.92553217
      0.07407407	     -0.17863371	     -1.84950252	    102.45394246	      0.05527964	      0.91446846	      0.61217727	      7.90050634	      1.60372466	    -12.37053268	     14.07548137	      0.24566349	     29.70741337	     -2.21234911	      0.00000000	      5.13803925	     -0.60665246	     -4.58956231	      5.92105316	      0.10334187	     34.70566324	     10.33661165	      0.00000000	      0.39768304	      0.16675553	     -1.20493118	      0.73853717	      0.22178486	     -1.28023938	      0.65335346	      0.40544940	     -1.28023938	      0.45451194	      0.40544940	     -1.05431478	      0.36928847	      0.34004788	     -0.97900658	      0.22723609	      0.25830432	     -0.90369839	      2.84061017	      1.88637192	     -6.70146575	      0.00000000	      0.00000000	     27.64759049	      6.65672714	     10.46371074	     20.94517553	    -12.09979056	     76.16806524	     55.29149243	     44.13368494	     -4.03705900	      4.13828789	      9.87932993	    -16.81228534	     47.28153761	     58.57005573	     88.44728637	      0.85506057	      5.02069811
      0.09259259	     -0.09127946	     -1.74339032	    102.85441748	      0.05475333	      0.91465251	      0.61142893	      7.82495369	      1.63728398	    -12.78531054	     14.33965980	      0.25027428	     29.91955735	     -1.90702329	      0.00000000	      4.96013346	     -0.67816408	     -3.78377774	      5.67168645	      0.09898960	     34.63655041	      9.80333816	      0.00000000	      0.39604858	      0.16721003	     -1.26114442	      0.73550182	      0.22238934	     -1.33996595	      0.65066822	      0.40655448	     -1.33996595	      0.45264393	      0.40655448	     -1.10350137	      0.36777071	      0.34097470	     -1.02467984	      0.22630216	      0.25900834	     -0.94585832	      2.82893542	      1.89151334	     -7.01410692	      0.00000000	      0.00000000	     27.62493797	      6.72590948	     10.22271061	     20.57399561	    -12.15411022	     75.75732772	     55.36704818	     43.74155559	     -3.81315446	      4.52766721	     10.02228801	    -16.93836195	     47.86980358	     58.55116728	     88.42391230	      0.67959128	      4.96612444
      0.11111111	     -0.02995650	     -1.71994137	    103.14628628	      0.05439194	      0.91479837	      0.61088170	      7.87511897	      1.66496526	    -12.87714745	     14.63606063	      0.25544745	     29.91274714	     -2.12373287	      0.00000000	      4.92288472	     -0.74359118	     -3.59498721	      5.57976412	      0.09738526	     34.65389723	      9.85237368	      0.00000000	      0.40097328	      0.16371456	     -1.31946869	      0.74464748	      0.21774037	     -1.40193549	      0.65875901	      0.39805559	     -1.40193549	      0.45827236	      0.39805559	     -1.15453511	      0.37234379	      0.33384674	     -1.07206831	      0.22911613	      0.25359386	     -0.98960152	      2.86411206	      1.85197189	     -7.33848903	      0.00000000	      0.00000000	     27.61863167	      6.97517014	     10.10793205	     20.38996458	    -12.13574248	     75.73929641	     55.37464485	     43.16113580	     -3.56286800	      4.90490433	     10.04875476	    -17.07026611	     48.10061041	     58.53138482	     88.34952523	      0.81446850	      4.79950732
      0.12962963	      0.01958564	     -1.65769935	    103.37220048	      0.05420268	      0.91499243	      0.61052282	      7.89256709	      1.75723486	    -12.50054408	     14.83269044	      0.25887929	     29.78436527	     -2.98288905	      0.00000000	      4.84100052	     -0.80359835	     -3.21638070	      5.48314080	      0.09569886	     34.66562892	      9.74787787	      0.00000000	      0.39460038	      0.15902217	     -1.38311787	      0.73281236	      0.21149948	     -1.46956274	      0.64828896	      0.38664649	     -1.46956274	      0.45098877	      0.38664649	     -1.21022814	      0.36642591	      0.32427800	     -1.12378327	      0.22547466	      0.24632533	     -1.03733841	      2.81859104	      1.79889054	     -7.69248668	      0.00000000	      0.00000000	     27.61017379	      7.23432999	      9.89608571	     20.49068222	    -12.05331896	     76.20194288	     55.35411461	     42.06207218	     -3.14867422	      5.15166994	     10.22923068	    -17.33167334	     48.48816866	     58.49238829	     88.22695080	      1.44018836	      4.40963106
      0.14814815	      0.05000711	     -1.46602406	    103.47378093	      0.05412769	      0.91546659	      0.61053949	      7.72783716	      1.77654093	    -12.88930456	     14.86800725	      0.25949568	     29.84749420	     -2.58091511	      0.00000000	      4.68000110	     -0.87107968	     -2.66308234	      5.50969702	      0.09616235	     34.56295035	      9.25128712	      0.00000000	      0.36139430	      0.15814363	     -1.41365502	      0.67114536	      0.21033102	     -1.50200846	      0.59373470	      0.38451041	     -1.50200846	      0.41303755	      0.38451041	     -1.23694814	      0.33559075	      0.32248648	     -1.14859470	      0.20650071	      0.24496448	     -1.06024126	      2.58140337	      1.78895234	     -7.86232512	      0.00000000	      0.00000000	     27.70668480	      7.42180087	      9.65903123	     20.58422131	    -12.00423547	     76.36525885	     55.35466491	     42.39181785	     -2.93260172	      5.31121604	     10.76791015	    -17.62741572	     49.59573113	     58.49170976	     87.57100598	      1.27435719	      4.63533159
      0.16666667	      0.05309930	     -1.55927654	    103.47560046	      0.05398990	      0.91555239	      0.61070503	      8.09125495	      1.76100276	    -12.12182687	     15.33760758	      0.26769175	     29.74735798	     -3.87426377	      0.00000000	      4.74223202	     -0.86075458	     -3.03804753	      5.40775623	      0.09438315	     34.41631578	      9.85920833	      0.00000000	      0.39019157	      0.15145946	     -1.40621765	      0.72462477	      0.20144108	     -1.49410625	      0.64104573	      0.36825853	     -1.49410625	      0.44594995	      0.36825853	     -1.23044044	      0.36233189	      0.30885613	     -1.14255184	      0.22295546	      0.23461070	     -1.05466324	      2.78709937	      1.71333968	     -7.82096069	      0.00000000	      0.00000000	     27.62250252	      7.23206211	      9.20808750	     20.69571543	    -11.91879659	     76.84192907	     55.07796162	     42.85718014	     -2.45781333	      5.32070477	     11.33728474	    -17.79562672	     50.85746761	     58.24983161	     88.13441552	      1.73160781	      4.50567624
